<?xml version="1.0" encoding="UTF-8"?>
<svg id="Layer_1" xmlns="http://www.w3.org/2000/svg" version="1.1" viewBox="0 0 790.4 735.8">
  <!-- Generator: Adobe Illustrator 29.0.0, SVG Export Plug-In . SVG Version: 2.1.0 Build 186)  -->
  <defs>
    <style>
      .st0 {
        fill: #ccc;
      }

      .st0, .st1, .st2 {
        stroke: #010201;
        stroke-miterlimit: 10;
      }

      .st1 {
        fill: none;
      }

      .st2 {
        fill: #f0efef;
      }
    </style>
  </defs>
  <g id="Layer_2">
    <path class="st2" d="M228,94.2v641.1h114.2V94.2h-114.2ZM299.2,715.2h-28.2V118.7h28.2v596.5Z"/>
    <g>
      <line class="st1" x1="342.2" y1="118.4" x2="321.7" y2="118.4"/>
      <line class="st1" x1="342.2" y1="124" x2="331" y2="124"/>
      <line class="st1" x1="342.2" y1="129.5" x2="331" y2="129.5"/>
      <line class="st1" x1="342.2" y1="135" x2="331" y2="135"/>
      <line class="st1" x1="342.2" y1="140.6" x2="331" y2="140.6"/>
      <line class="st1" x1="342.2" y1="146.1" x2="331" y2="146.1"/>
      <line class="st1" x1="342.2" y1="151.6" x2="331" y2="151.6"/>
      <line class="st1" x1="342.2" y1="157.1" x2="331" y2="157.1"/>
      <line class="st1" x1="342.2" y1="162.7" x2="331" y2="162.7"/>
      <line class="st1" x1="342.2" y1="168.2" x2="321.7" y2="168.2"/>
      <line class="st1" x1="342.2" y1="168.1" x2="321.7" y2="168.1"/>
      <line class="st1" x1="342.2" y1="173.7" x2="331" y2="173.7"/>
      <line class="st1" x1="342.2" y1="179.2" x2="331" y2="179.2"/>
      <line class="st1" x1="342.2" y1="184.7" x2="331" y2="184.7"/>
      <line class="st1" x1="342.2" y1="190.3" x2="331" y2="190.3"/>
      <line class="st1" x1="342.2" y1="195.8" x2="331" y2="195.8"/>
      <line class="st1" x1="342.2" y1="201.3" x2="331" y2="201.3"/>
      <line class="st1" x1="342.2" y1="206.9" x2="331" y2="206.9"/>
      <line class="st1" x1="342.2" y1="212.4" x2="331" y2="212.4"/>
      <line class="st1" x1="342.2" y1="217.9" x2="321.7" y2="217.9"/>
      <line class="st1" x1="342.2" y1="217.9" x2="321.7" y2="217.9"/>
      <line class="st1" x1="342.2" y1="223.4" x2="331" y2="223.4"/>
      <line class="st1" x1="342.2" y1="228.9" x2="331" y2="228.9"/>
      <line class="st1" x1="342.2" y1="234.4" x2="331" y2="234.4"/>
      <line class="st1" x1="342.2" y1="240" x2="331" y2="240"/>
      <line class="st1" x1="342.2" y1="245.5" x2="331" y2="245.5"/>
      <line class="st1" x1="342.2" y1="251" x2="331" y2="251"/>
      <line class="st1" x1="342.2" y1="256.6" x2="331" y2="256.6"/>
      <line class="st1" x1="342.2" y1="262.1" x2="331" y2="262.1"/>
      <line class="st1" x1="342.2" y1="267.6" x2="321.7" y2="267.6"/>
      <line class="st1" x1="342.2" y1="267.6" x2="321.7" y2="267.6"/>
      <line class="st1" x1="342.2" y1="273.1" x2="331" y2="273.1"/>
      <line class="st1" x1="342.2" y1="278.6" x2="331" y2="278.6"/>
      <line class="st1" x1="342.2" y1="284.2" x2="331" y2="284.2"/>
      <line class="st1" x1="342.2" y1="289.7" x2="331" y2="289.7"/>
      <line class="st1" x1="342.2" y1="295.2" x2="331" y2="295.2"/>
      <line class="st1" x1="342.2" y1="300.7" x2="331" y2="300.7"/>
      <line class="st1" x1="342.2" y1="306.3" x2="331" y2="306.3"/>
      <line class="st1" x1="342.2" y1="311.8" x2="331" y2="311.8"/>
      <line class="st1" x1="342.2" y1="317.3" x2="321.7" y2="317.3"/>
      <line class="st1" x1="342.2" y1="317.3" x2="321.7" y2="317.3"/>
      <line class="st1" x1="342.2" y1="322.8" x2="331" y2="322.8"/>
      <line class="st1" x1="342.2" y1="328.3" x2="331" y2="328.3"/>
      <line class="st1" x1="342.2" y1="333.9" x2="331" y2="333.9"/>
      <line class="st1" x1="342.2" y1="339.4" x2="331" y2="339.4"/>
      <line class="st1" x1="342.2" y1="344.9" x2="331" y2="344.9"/>
      <line class="st1" x1="342.2" y1="350.5" x2="331" y2="350.5"/>
      <line class="st1" x1="342.2" y1="356" x2="331" y2="356"/>
      <line class="st1" x1="342.2" y1="361.5" x2="331" y2="361.5"/>
      <line class="st1" x1="342.2" y1="367" x2="321.7" y2="367"/>
      <line class="st1" x1="342.2" y1="367" x2="321.7" y2="367"/>
      <line class="st1" x1="342.2" y1="372.5" x2="331" y2="372.5"/>
      <line class="st1" x1="342.2" y1="378" x2="331" y2="378"/>
      <line class="st1" x1="342.2" y1="383.6" x2="331" y2="383.6"/>
      <line class="st1" x1="342.2" y1="389.1" x2="331" y2="389.1"/>
      <line class="st1" x1="342.2" y1="394.6" x2="331" y2="394.6"/>
      <line class="st1" x1="342.2" y1="400.2" x2="331" y2="400.2"/>
      <line class="st1" x1="342.2" y1="405.7" x2="331" y2="405.7"/>
      <line class="st1" x1="342.2" y1="411.2" x2="331" y2="411.2"/>
      <line class="st1" x1="342.2" y1="416.8" x2="321.7" y2="416.8"/>
      <line class="st1" x1="342.2" y1="416.7" x2="321.7" y2="416.7"/>
      <line class="st1" x1="342.2" y1="422.2" x2="331" y2="422.2"/>
      <line class="st1" x1="342.2" y1="427.8" x2="331" y2="427.8"/>
      <line class="st1" x1="342.2" y1="433.3" x2="331" y2="433.3"/>
      <line class="st1" x1="342.2" y1="438.8" x2="331" y2="438.8"/>
      <line class="st1" x1="342.2" y1="444.3" x2="331" y2="444.3"/>
      <line class="st1" x1="342.2" y1="449.9" x2="331" y2="449.9"/>
      <line class="st1" x1="342.2" y1="455.4" x2="331" y2="455.4"/>
      <line class="st1" x1="342.2" y1="460.9" x2="331" y2="460.9"/>
      <line class="st1" x1="342.2" y1="466.5" x2="321.7" y2="466.5"/>
      <line class="st1" x1="342.2" y1="466.4" x2="321.7" y2="466.4"/>
      <line class="st1" x1="342.2" y1="471.9" x2="331" y2="471.9"/>
      <line class="st1" x1="342.2" y1="477.5" x2="331" y2="477.5"/>
      <line class="st1" x1="342.2" y1="483" x2="331" y2="483"/>
      <line class="st1" x1="342.2" y1="488.5" x2="331" y2="488.5"/>
      <line class="st1" x1="342.2" y1="494.1" x2="331" y2="494.1"/>
      <line class="st1" x1="342.2" y1="499.6" x2="331" y2="499.6"/>
      <line class="st1" x1="342.2" y1="505.1" x2="331" y2="505.1"/>
      <line class="st1" x1="342.2" y1="510.6" x2="331" y2="510.6"/>
      <line class="st1" x1="342.2" y1="516.2" x2="321.7" y2="516.2"/>
      <line class="st1" x1="342.2" y1="516.1" x2="321.7" y2="516.1"/>
      <line class="st1" x1="342.2" y1="521.7" x2="331" y2="521.7"/>
      <line class="st1" x1="342.2" y1="527.2" x2="331" y2="527.2"/>
      <line class="st1" x1="342.2" y1="532.7" x2="331" y2="532.7"/>
      <line class="st1" x1="342.2" y1="538.2" x2="331" y2="538.2"/>
      <line class="st1" x1="342.2" y1="543.8" x2="331" y2="543.8"/>
      <line class="st1" x1="342.2" y1="549.3" x2="331" y2="549.3"/>
      <line class="st1" x1="342.2" y1="554.8" x2="331" y2="554.8"/>
      <line class="st1" x1="342.2" y1="560.4" x2="331" y2="560.4"/>
      <line class="st1" x1="342.2" y1="565.9" x2="321.7" y2="565.9"/>
      <line class="st1" x1="342.2" y1="565.8" x2="321.7" y2="565.8"/>
      <line class="st1" x1="342.2" y1="571.4" x2="331" y2="571.4"/>
      <line class="st1" x1="342.2" y1="576.9" x2="331" y2="576.9"/>
      <line class="st1" x1="342.2" y1="582.4" x2="331" y2="582.4"/>
      <line class="st1" x1="342.2" y1="588" x2="331" y2="588"/>
      <line class="st1" x1="342.2" y1="593.5" x2="331" y2="593.5"/>
      <line class="st1" x1="342.2" y1="599" x2="331" y2="599"/>
      <line class="st1" x1="342.2" y1="604.5" x2="331" y2="604.5"/>
      <line class="st1" x1="342.2" y1="610.1" x2="331" y2="610.1"/>
      <line class="st1" x1="342.2" y1="615.6" x2="321.7" y2="615.6"/>
      <line class="st1" x1="342.2" y1="615.5" x2="321.7" y2="615.5"/>
      <line class="st1" x1="342.2" y1="621.1" x2="331" y2="621.1"/>
      <line class="st1" x1="342.2" y1="626.6" x2="331" y2="626.6"/>
      <line class="st1" x1="342.2" y1="632.1" x2="331" y2="632.1"/>
      <line class="st1" x1="342.2" y1="637.7" x2="331" y2="637.7"/>
      <line class="st1" x1="342.2" y1="643.2" x2="331" y2="643.2"/>
      <line class="st1" x1="342.2" y1="648.7" x2="331" y2="648.7"/>
      <line class="st1" x1="342.2" y1="654.3" x2="331" y2="654.3"/>
      <line class="st1" x1="342.2" y1="659.8" x2="331" y2="659.8"/>
      <line class="st1" x1="342.2" y1="665.3" x2="321.7" y2="665.3"/>
      <line class="st1" x1="342.2" y1="665.3" x2="321.7" y2="665.3"/>
      <line class="st1" x1="342.2" y1="670.8" x2="331" y2="670.8"/>
      <line class="st1" x1="342.2" y1="676.3" x2="331" y2="676.3"/>
      <line class="st1" x1="342.2" y1="681.8" x2="331" y2="681.8"/>
      <line class="st1" x1="342.2" y1="687.4" x2="331" y2="687.4"/>
      <line class="st1" x1="342.2" y1="692.9" x2="331" y2="692.9"/>
      <line class="st1" x1="342.2" y1="698.4" x2="331" y2="698.4"/>
      <line class="st1" x1="342.2" y1="704" x2="331" y2="704"/>
      <line class="st1" x1="342.2" y1="709.5" x2="331" y2="709.5"/>
      <line class="st1" x1="342.2" y1="715" x2="321.7" y2="715"/>
    </g>
    <g>
      <line class="st1" x1="228.5" y1="118.5" x2="248.9" y2="118.5"/>
      <line class="st1" x1="228.5" y1="124" x2="239.7" y2="124"/>
      <line class="st1" x1="228.5" y1="129.5" x2="239.7" y2="129.5"/>
      <line class="st1" x1="228.5" y1="135.1" x2="239.7" y2="135.1"/>
      <line class="st1" x1="228.5" y1="140.6" x2="239.7" y2="140.6"/>
      <line class="st1" x1="228.5" y1="146.1" x2="239.7" y2="146.1"/>
      <line class="st1" x1="228.5" y1="151.7" x2="239.7" y2="151.7"/>
      <line class="st1" x1="228.5" y1="157.2" x2="239.7" y2="157.2"/>
      <line class="st1" x1="228.5" y1="162.7" x2="239.7" y2="162.7"/>
      <line class="st1" x1="228.5" y1="168.2" x2="248.9" y2="168.2"/>
      <line class="st1" x1="228.5" y1="168.2" x2="248.9" y2="168.2"/>
      <line class="st1" x1="228.5" y1="173.7" x2="239.7" y2="173.7"/>
      <line class="st1" x1="228.5" y1="179.2" x2="239.7" y2="179.2"/>
      <line class="st1" x1="228.5" y1="184.8" x2="239.7" y2="184.8"/>
      <line class="st1" x1="228.5" y1="190.3" x2="239.7" y2="190.3"/>
      <line class="st1" x1="228.5" y1="195.8" x2="239.7" y2="195.8"/>
      <line class="st1" x1="228.5" y1="201.4" x2="239.7" y2="201.4"/>
      <line class="st1" x1="228.5" y1="206.9" x2="239.7" y2="206.9"/>
      <line class="st1" x1="228.5" y1="212.4" x2="239.7" y2="212.4"/>
      <line class="st1" x1="228.5" y1="218" x2="248.9" y2="218"/>
      <line class="st1" x1="228.5" y1="217.9" x2="248.9" y2="217.9"/>
      <line class="st1" x1="228.5" y1="223.4" x2="239.7" y2="223.4"/>
      <line class="st1" x1="228.5" y1="229" x2="239.7" y2="229"/>
      <line class="st1" x1="228.5" y1="234.5" x2="239.7" y2="234.5"/>
      <line class="st1" x1="228.5" y1="240" x2="239.7" y2="240"/>
      <line class="st1" x1="228.5" y1="245.5" x2="239.7" y2="245.5"/>
      <line class="st1" x1="228.5" y1="251.1" x2="239.7" y2="251.1"/>
      <line class="st1" x1="228.5" y1="256.6" x2="239.7" y2="256.6"/>
      <line class="st1" x1="228.5" y1="262.1" x2="239.7" y2="262.1"/>
      <line class="st1" x1="228.5" y1="267.7" x2="248.9" y2="267.7"/>
      <line class="st1" x1="228.5" y1="267.6" x2="248.9" y2="267.6"/>
      <line class="st1" x1="228.5" y1="273.1" x2="239.7" y2="273.1"/>
      <line class="st1" x1="228.5" y1="278.7" x2="239.7" y2="278.7"/>
      <line class="st1" x1="228.5" y1="284.2" x2="239.7" y2="284.2"/>
      <line class="st1" x1="228.5" y1="289.7" x2="239.7" y2="289.7"/>
      <line class="st1" x1="228.5" y1="295.3" x2="239.7" y2="295.3"/>
      <line class="st1" x1="228.5" y1="300.8" x2="239.7" y2="300.8"/>
      <line class="st1" x1="228.5" y1="306.3" x2="239.7" y2="306.3"/>
      <line class="st1" x1="228.5" y1="311.8" x2="239.7" y2="311.8"/>
      <line class="st1" x1="228.5" y1="317.4" x2="248.9" y2="317.4"/>
      <line class="st1" x1="228.5" y1="317.3" x2="248.9" y2="317.3"/>
      <line class="st1" x1="228.5" y1="322.9" x2="239.7" y2="322.9"/>
      <line class="st1" x1="228.5" y1="328.4" x2="239.7" y2="328.4"/>
      <line class="st1" x1="228.5" y1="333.9" x2="239.7" y2="333.9"/>
      <line class="st1" x1="228.5" y1="339.4" x2="239.7" y2="339.4"/>
      <line class="st1" x1="228.5" y1="345" x2="239.7" y2="345"/>
      <line class="st1" x1="228.5" y1="350.5" x2="239.7" y2="350.5"/>
      <line class="st1" x1="228.5" y1="356" x2="239.7" y2="356"/>
      <line class="st1" x1="228.5" y1="361.6" x2="239.7" y2="361.6"/>
      <line class="st1" x1="228.5" y1="367.1" x2="248.9" y2="367.1"/>
      <line class="st1" x1="228.5" y1="367" x2="248.9" y2="367"/>
      <line class="st1" x1="228.5" y1="372.6" x2="239.7" y2="372.6"/>
      <line class="st1" x1="228.5" y1="378.1" x2="239.7" y2="378.1"/>
      <line class="st1" x1="228.5" y1="383.6" x2="239.7" y2="383.6"/>
      <line class="st1" x1="228.5" y1="389.2" x2="239.7" y2="389.2"/>
      <line class="st1" x1="228.5" y1="394.7" x2="239.7" y2="394.7"/>
      <line class="st1" x1="228.5" y1="400.2" x2="239.7" y2="400.2"/>
      <line class="st1" x1="228.5" y1="405.7" x2="239.7" y2="405.7"/>
      <line class="st1" x1="228.5" y1="411.3" x2="239.7" y2="411.3"/>
      <line class="st1" x1="228.5" y1="416.8" x2="248.9" y2="416.8"/>
      <line class="st1" x1="228.5" y1="416.7" x2="248.9" y2="416.7"/>
      <line class="st1" x1="228.5" y1="422.3" x2="239.7" y2="422.3"/>
      <line class="st1" x1="228.5" y1="427.8" x2="239.7" y2="427.8"/>
      <line class="st1" x1="228.5" y1="433.3" x2="239.7" y2="433.3"/>
      <line class="st1" x1="228.5" y1="438.9" x2="239.7" y2="438.9"/>
      <line class="st1" x1="228.5" y1="444.4" x2="239.7" y2="444.4"/>
      <line class="st1" x1="228.5" y1="449.9" x2="239.7" y2="449.9"/>
      <line class="st1" x1="228.5" y1="455.5" x2="239.7" y2="455.5"/>
      <line class="st1" x1="228.5" y1="461" x2="239.7" y2="461"/>
      <line class="st1" x1="228.5" y1="466.5" x2="248.9" y2="466.5"/>
      <line class="st1" x1="228.5" y1="466.5" x2="248.9" y2="466.5"/>
      <line class="st1" x1="228.5" y1="472" x2="239.7" y2="472"/>
      <line class="st1" x1="228.5" y1="477.5" x2="239.7" y2="477.5"/>
      <line class="st1" x1="228.5" y1="483" x2="239.7" y2="483"/>
      <line class="st1" x1="228.5" y1="488.6" x2="239.7" y2="488.6"/>
      <line class="st1" x1="228.5" y1="494.1" x2="239.7" y2="494.1"/>
      <line class="st1" x1="228.5" y1="499.6" x2="239.7" y2="499.6"/>
      <line class="st1" x1="228.5" y1="505.2" x2="239.7" y2="505.2"/>
      <line class="st1" x1="228.5" y1="510.7" x2="239.7" y2="510.7"/>
      <line class="st1" x1="228.5" y1="516.2" x2="248.9" y2="516.2"/>
      <line class="st1" x1="228.5" y1="516.2" x2="248.9" y2="516.2"/>
      <line class="st1" x1="228.5" y1="521.7" x2="239.7" y2="521.7"/>
      <line class="st1" x1="228.5" y1="527.2" x2="239.7" y2="527.2"/>
      <line class="st1" x1="228.5" y1="532.8" x2="239.7" y2="532.8"/>
      <line class="st1" x1="228.5" y1="538.3" x2="239.7" y2="538.3"/>
      <line class="st1" x1="228.5" y1="543.8" x2="239.7" y2="543.8"/>
      <line class="st1" x1="228.5" y1="549.3" x2="239.7" y2="549.3"/>
      <line class="st1" x1="228.5" y1="554.9" x2="239.7" y2="554.9"/>
      <line class="st1" x1="228.5" y1="560.4" x2="239.7" y2="560.4"/>
      <line class="st1" x1="228.5" y1="565.9" x2="248.9" y2="565.9"/>
      <line class="st1" x1="228.5" y1="565.9" x2="248.9" y2="565.9"/>
      <line class="st1" x1="228.5" y1="571.4" x2="239.7" y2="571.4"/>
      <line class="st1" x1="228.5" y1="576.9" x2="239.7" y2="576.9"/>
      <line class="st1" x1="228.5" y1="582.5" x2="239.7" y2="582.5"/>
      <line class="st1" x1="228.5" y1="588" x2="239.7" y2="588"/>
      <line class="st1" x1="228.5" y1="593.5" x2="239.7" y2="593.5"/>
      <line class="st1" x1="228.5" y1="599.1" x2="239.7" y2="599.1"/>
      <line class="st1" x1="228.5" y1="604.6" x2="239.7" y2="604.6"/>
      <line class="st1" x1="228.5" y1="610.1" x2="239.7" y2="610.1"/>
      <line class="st1" x1="228.5" y1="615.6" x2="248.9" y2="615.6"/>
      <line class="st1" x1="228.5" y1="615.6" x2="248.9" y2="615.6"/>
      <line class="st1" x1="228.5" y1="621.1" x2="239.7" y2="621.1"/>
      <line class="st1" x1="228.5" y1="626.6" x2="239.7" y2="626.6"/>
      <line class="st1" x1="228.5" y1="632.2" x2="239.7" y2="632.2"/>
      <line class="st1" x1="228.5" y1="637.7" x2="239.7" y2="637.7"/>
      <line class="st1" x1="228.5" y1="643.2" x2="239.7" y2="643.2"/>
      <line class="st1" x1="228.5" y1="648.8" x2="239.7" y2="648.8"/>
      <line class="st1" x1="228.5" y1="654.3" x2="239.7" y2="654.3"/>
      <line class="st1" x1="228.5" y1="659.8" x2="239.7" y2="659.8"/>
      <line class="st1" x1="228.5" y1="665.4" x2="248.9" y2="665.4"/>
      <line class="st1" x1="228.5" y1="665.3" x2="248.9" y2="665.3"/>
      <line class="st1" x1="228.5" y1="670.8" x2="239.7" y2="670.8"/>
      <line class="st1" x1="228.5" y1="676.4" x2="239.7" y2="676.4"/>
      <line class="st1" x1="228.5" y1="681.9" x2="239.7" y2="681.9"/>
      <line class="st1" x1="228.5" y1="687.4" x2="239.7" y2="687.4"/>
      <line class="st1" x1="228.5" y1="692.9" x2="239.7" y2="692.9"/>
      <line class="st1" x1="228.5" y1="698.5" x2="239.7" y2="698.5"/>
      <line class="st1" x1="228.5" y1="704" x2="239.7" y2="704"/>
      <line class="st1" x1="228.5" y1="709.5" x2="239.7" y2="709.5"/>
      <line class="st1" x1="228.5" y1="715.1" x2="248.9" y2="715.1"/>
    </g>
    <path id="TRUC_QUI_BOUGE" class="st0" d="M326.2,396.1h-78.2c-.9,0-1.7-.8-1.7-1.7v-89.8c0-.9.8-1.7,1.7-1.7h78.2c.9,0,1.7.8,1.7,1.7v89.8c0,1-.8,1.7-1.7,1.7Z"/>
  </g>
</svg>