<?xml version="1.0" encoding="UTF-8"?>
<svg xmlns="http://www.w3.org/2000/svg" version="1.1" viewBox="0 0 115.2 642.1">
  <!-- Generator: Adobe Illustrator 29.0.0, SVG Export Plug-In . SVG Version: 2.1.0 Build 186)  -->
  <defs>
    <style>
      .st0 {
        fill: #ccc;
      }

      .st0, .st1, .st2 {
        stroke: #010201;
        stroke-miterlimit: 10;
      }

      .st1 {
        fill: none;
      }

      .st2 {
        fill: #f0efef;
      }
    </style>
  </defs>
  <g id="Layer_3">
    <path class="st2" d="M.5.5v641.1h114.2V.5H.5ZM71.7,621.5h-28.2V25h28.2v596.5Z"/>
  </g>
  <g id="Layer_4">
    <g id="Layer_2">
      <g>
        <line class="st1" x1="1" y1="24.8" x2="21.4" y2="24.8"/>
        <line class="st1" x1="1" y1="30.3" x2="12.2" y2="30.3"/>
        <line class="st1" x1="1" y1="35.8" x2="12.2" y2="35.8"/>
        <line class="st1" x1="1" y1="41.4" x2="12.2" y2="41.4"/>
        <line class="st1" x1="1" y1="46.9" x2="12.2" y2="46.9"/>
        <line class="st1" x1="1" y1="52.4" x2="12.2" y2="52.4"/>
        <line class="st1" x1="1" y1="58" x2="12.2" y2="58"/>
        <line class="st1" x1="1" y1="63.5" x2="12.2" y2="63.5"/>
        <line class="st1" x1="1" y1="69" x2="12.2" y2="69"/>
        <line class="st1" x1="1" y1="74.5" x2="21.4" y2="74.5"/>
        <line class="st1" x1="1" y1="74.5" x2="21.4" y2="74.5"/>
        <line class="st1" x1="1" y1="80" x2="12.2" y2="80"/>
        <line class="st1" x1="1" y1="85.5" x2="12.2" y2="85.5"/>
        <line class="st1" x1="1" y1="91.1" x2="12.2" y2="91.1"/>
        <line class="st1" x1="1" y1="96.6" x2="12.2" y2="96.6"/>
        <line class="st1" x1="1" y1="102.1" x2="12.2" y2="102.1"/>
        <line class="st1" x1="1" y1="107.7" x2="12.2" y2="107.7"/>
        <line class="st1" x1="1" y1="113.2" x2="12.2" y2="113.2"/>
        <line class="st1" x1="1" y1="118.7" x2="12.2" y2="118.7"/>
        <line class="st1" x1="1" y1="124.3" x2="21.4" y2="124.3"/>
        <line class="st1" x1="1" y1="124.2" x2="21.4" y2="124.2"/>
        <line class="st1" x1="1" y1="129.7" x2="12.2" y2="129.7"/>
        <line class="st1" x1="1" y1="135.3" x2="12.2" y2="135.3"/>
        <line class="st1" x1="1" y1="140.8" x2="12.2" y2="140.8"/>
        <line class="st1" x1="1" y1="146.3" x2="12.2" y2="146.3"/>
        <line class="st1" x1="1" y1="151.8" x2="12.2" y2="151.8"/>
        <line class="st1" x1="1" y1="157.4" x2="12.2" y2="157.4"/>
        <line class="st1" x1="1" y1="162.9" x2="12.2" y2="162.9"/>
        <line class="st1" x1="1" y1="168.4" x2="12.2" y2="168.4"/>
        <line class="st1" x1="1" y1="174" x2="21.4" y2="174"/>
        <line class="st1" x1="1" y1="173.9" x2="21.4" y2="173.9"/>
        <line class="st1" x1="1" y1="179.4" x2="12.2" y2="179.4"/>
        <line class="st1" x1="1" y1="185" x2="12.2" y2="185"/>
        <line class="st1" x1="1" y1="190.5" x2="12.2" y2="190.5"/>
        <line class="st1" x1="1" y1="196" x2="12.2" y2="196"/>
        <line class="st1" x1="1" y1="201.6" x2="12.2" y2="201.6"/>
        <line class="st1" x1="1" y1="207.1" x2="12.2" y2="207.1"/>
        <line class="st1" x1="1" y1="212.6" x2="12.2" y2="212.6"/>
        <line class="st1" x1="1" y1="218.1" x2="12.2" y2="218.1"/>
        <line class="st1" x1="1" y1="223.7" x2="21.4" y2="223.7"/>
        <line class="st1" x1="1" y1="223.6" x2="21.4" y2="223.6"/>
        <line class="st1" x1="1" y1="229.2" x2="12.2" y2="229.2"/>
        <line class="st1" x1="1" y1="234.7" x2="12.2" y2="234.7"/>
        <line class="st1" x1="1" y1="240.2" x2="12.2" y2="240.2"/>
        <line class="st1" x1="1" y1="245.7" x2="12.2" y2="245.7"/>
        <line class="st1" x1="1" y1="251.3" x2="12.2" y2="251.3"/>
        <line class="st1" x1="1" y1="256.8" x2="12.2" y2="256.8"/>
        <line class="st1" x1="1" y1="262.3" x2="12.2" y2="262.3"/>
        <line class="st1" x1="1" y1="267.9" x2="12.2" y2="267.9"/>
        <line class="st1" x1="1" y1="273.4" x2="21.4" y2="273.4"/>
        <line class="st1" x1="1" y1="273.3" x2="21.4" y2="273.3"/>
        <line class="st1" x1="1" y1="278.9" x2="12.2" y2="278.9"/>
        <line class="st1" x1="1" y1="284.4" x2="12.2" y2="284.4"/>
        <line class="st1" x1="1" y1="289.9" x2="12.2" y2="289.9"/>
        <line class="st1" x1="1" y1="295.5" x2="12.2" y2="295.5"/>
        <line class="st1" x1="1" y1="301" x2="12.2" y2="301"/>
        <line class="st1" x1="1" y1="306.5" x2="12.2" y2="306.5"/>
        <line class="st1" x1="1" y1="312" x2="12.2" y2="312"/>
        <line class="st1" x1="1" y1="317.6" x2="12.2" y2="317.6"/>
        <line class="st1" x1="1" y1="323.1" x2="21.4" y2="323.1"/>
        <line class="st1" x1="1" y1="323" x2="21.4" y2="323"/>
        <line class="st1" x1="1" y1="328.6" x2="12.2" y2="328.6"/>
        <line class="st1" x1="1" y1="334.1" x2="12.2" y2="334.1"/>
        <line class="st1" x1="1" y1="339.6" x2="12.2" y2="339.6"/>
        <line class="st1" x1="1" y1="345.2" x2="12.2" y2="345.2"/>
        <line class="st1" x1="1" y1="350.7" x2="12.2" y2="350.7"/>
        <line class="st1" x1="1" y1="356.2" x2="12.2" y2="356.2"/>
        <line class="st1" x1="1" y1="361.8" x2="12.2" y2="361.8"/>
        <line class="st1" x1="1" y1="367.3" x2="12.2" y2="367.3"/>
        <line class="st1" x1="1" y1="372.8" x2="21.4" y2="372.8"/>
        <line class="st1" x1="1" y1="372.8" x2="21.4" y2="372.8"/>
        <line class="st1" x1="1" y1="378.3" x2="12.2" y2="378.3"/>
        <line class="st1" x1="1" y1="383.8" x2="12.2" y2="383.8"/>
        <line class="st1" x1="1" y1="389.3" x2="12.2" y2="389.3"/>
        <line class="st1" x1="1" y1="394.9" x2="12.2" y2="394.9"/>
        <line class="st1" x1="1" y1="400.4" x2="12.2" y2="400.4"/>
        <line class="st1" x1="1" y1="405.9" x2="12.2" y2="405.9"/>
        <line class="st1" x1="1" y1="411.5" x2="12.2" y2="411.5"/>
        <line class="st1" x1="1" y1="417" x2="12.2" y2="417"/>
        <line class="st1" x1="1" y1="422.5" x2="21.4" y2="422.5"/>
        <line class="st1" x1="1" y1="422.5" x2="21.4" y2="422.5"/>
        <line class="st1" x1="1" y1="428" x2="12.2" y2="428"/>
        <line class="st1" x1="1" y1="433.5" x2="12.2" y2="433.5"/>
        <line class="st1" x1="1" y1="439.1" x2="12.2" y2="439.1"/>
        <line class="st1" x1="1" y1="444.6" x2="12.2" y2="444.6"/>
        <line class="st1" x1="1" y1="450.1" x2="12.2" y2="450.1"/>
        <line class="st1" x1="1" y1="455.6" x2="12.2" y2="455.6"/>
        <line class="st1" x1="1" y1="461.2" x2="12.2" y2="461.2"/>
        <line class="st1" x1="1" y1="466.7" x2="12.2" y2="466.7"/>
        <line class="st1" x1="1" y1="472.2" x2="21.4" y2="472.2"/>
        <line class="st1" x1="1" y1="472.2" x2="21.4" y2="472.2"/>
        <line class="st1" x1="1" y1="477.7" x2="12.2" y2="477.7"/>
        <line class="st1" x1="1" y1="483.2" x2="12.2" y2="483.2"/>
        <line class="st1" x1="1" y1="488.8" x2="12.2" y2="488.8"/>
        <line class="st1" x1="1" y1="494.3" x2="12.2" y2="494.3"/>
        <line class="st1" x1="1" y1="499.8" x2="12.2" y2="499.8"/>
        <line class="st1" x1="1" y1="505.4" x2="12.2" y2="505.4"/>
        <line class="st1" x1="1" y1="510.9" x2="12.2" y2="510.9"/>
        <line class="st1" x1="1" y1="516.4" x2="12.2" y2="516.4"/>
        <line class="st1" x1="1" y1="521.9" x2="21.4" y2="521.9"/>
        <line class="st1" x1="1" y1="521.9" x2="21.4" y2="521.9"/>
        <line class="st1" x1="1" y1="527.4" x2="12.2" y2="527.4"/>
        <line class="st1" x1="1" y1="532.9" x2="12.2" y2="532.9"/>
        <line class="st1" x1="1" y1="538.5" x2="12.2" y2="538.5"/>
        <line class="st1" x1="1" y1="544" x2="12.2" y2="544"/>
        <line class="st1" x1="1" y1="549.5" x2="12.2" y2="549.5"/>
        <line class="st1" x1="1" y1="555.1" x2="12.2" y2="555.1"/>
        <line class="st1" x1="1" y1="560.6" x2="12.2" y2="560.6"/>
        <line class="st1" x1="1" y1="566.1" x2="12.2" y2="566.1"/>
        <line class="st1" x1="1" y1="571.7" x2="21.4" y2="571.7"/>
        <line class="st1" x1="1" y1="571.6" x2="21.4" y2="571.6"/>
        <line class="st1" x1="1" y1="577.1" x2="12.2" y2="577.1"/>
        <line class="st1" x1="1" y1="582.7" x2="12.2" y2="582.7"/>
        <line class="st1" x1="1" y1="588.2" x2="12.2" y2="588.2"/>
        <line class="st1" x1="1" y1="593.7" x2="12.2" y2="593.7"/>
        <line class="st1" x1="1" y1="599.2" x2="12.2" y2="599.2"/>
        <line class="st1" x1="1" y1="604.8" x2="12.2" y2="604.8"/>
        <line class="st1" x1="1" y1="610.3" x2="12.2" y2="610.3"/>
        <line class="st1" x1="1" y1="615.8" x2="12.2" y2="615.8"/>
        <line class="st1" x1="1" y1="621.4" x2="21.4" y2="621.4"/>
      </g>
    </g>
    <g>
      <line class="st1" x1="114.7" y1="24.7" x2="94.2" y2="24.7"/>
      <line class="st1" x1="114.7" y1="30.3" x2="103.5" y2="30.3"/>
      <line class="st1" x1="114.7" y1="35.8" x2="103.5" y2="35.8"/>
      <line class="st1" x1="114.7" y1="41.3" x2="103.5" y2="41.3"/>
      <line class="st1" x1="114.7" y1="46.9" x2="103.5" y2="46.9"/>
      <line class="st1" x1="114.7" y1="52.4" x2="103.5" y2="52.4"/>
      <line class="st1" x1="114.7" y1="57.9" x2="103.5" y2="57.9"/>
      <line class="st1" x1="114.7" y1="63.4" x2="103.5" y2="63.4"/>
      <line class="st1" x1="114.7" y1="69" x2="103.5" y2="69"/>
      <line class="st1" x1="114.7" y1="74.5" x2="94.2" y2="74.5"/>
      <line class="st1" x1="114.7" y1="74.4" x2="94.2" y2="74.4"/>
      <line class="st1" x1="114.7" y1="80" x2="103.5" y2="80"/>
      <line class="st1" x1="114.7" y1="85.5" x2="103.5" y2="85.5"/>
      <line class="st1" x1="114.7" y1="91" x2="103.5" y2="91"/>
      <line class="st1" x1="114.7" y1="96.6" x2="103.5" y2="96.6"/>
      <line class="st1" x1="114.7" y1="102.1" x2="103.5" y2="102.1"/>
      <line class="st1" x1="114.7" y1="107.6" x2="103.5" y2="107.6"/>
      <line class="st1" x1="114.7" y1="113.2" x2="103.5" y2="113.2"/>
      <line class="st1" x1="114.7" y1="118.7" x2="103.5" y2="118.7"/>
      <line class="st1" x1="114.7" y1="124.2" x2="94.2" y2="124.2"/>
      <line class="st1" x1="114.7" y1="124.2" x2="94.2" y2="124.2"/>
      <line class="st1" x1="114.7" y1="129.7" x2="103.5" y2="129.7"/>
      <line class="st1" x1="114.7" y1="135.2" x2="103.5" y2="135.2"/>
      <line class="st1" x1="114.7" y1="140.7" x2="103.5" y2="140.7"/>
      <line class="st1" x1="114.7" y1="146.3" x2="103.5" y2="146.3"/>
      <line class="st1" x1="114.7" y1="151.8" x2="103.5" y2="151.8"/>
      <line class="st1" x1="114.7" y1="157.3" x2="103.5" y2="157.3"/>
      <line class="st1" x1="114.7" y1="162.9" x2="103.5" y2="162.9"/>
      <line class="st1" x1="114.7" y1="168.4" x2="103.5" y2="168.4"/>
      <line class="st1" x1="114.7" y1="173.9" x2="94.2" y2="173.9"/>
      <line class="st1" x1="114.7" y1="173.9" x2="94.2" y2="173.9"/>
      <line class="st1" x1="114.7" y1="179.4" x2="103.5" y2="179.4"/>
      <line class="st1" x1="114.7" y1="184.9" x2="103.5" y2="184.9"/>
      <line class="st1" x1="114.7" y1="190.5" x2="103.5" y2="190.5"/>
      <line class="st1" x1="114.7" y1="196" x2="103.5" y2="196"/>
      <line class="st1" x1="114.7" y1="201.5" x2="103.5" y2="201.5"/>
      <line class="st1" x1="114.7" y1="207" x2="103.5" y2="207"/>
      <line class="st1" x1="114.7" y1="212.6" x2="103.5" y2="212.6"/>
      <line class="st1" x1="114.7" y1="218.1" x2="103.5" y2="218.1"/>
      <line class="st1" x1="114.7" y1="223.6" x2="94.2" y2="223.6"/>
      <line class="st1" x1="114.7" y1="223.6" x2="94.2" y2="223.6"/>
      <line class="st1" x1="114.7" y1="229.1" x2="103.5" y2="229.1"/>
      <line class="st1" x1="114.7" y1="234.6" x2="103.5" y2="234.6"/>
      <line class="st1" x1="114.7" y1="240.2" x2="103.5" y2="240.2"/>
      <line class="st1" x1="114.7" y1="245.7" x2="103.5" y2="245.7"/>
      <line class="st1" x1="114.7" y1="251.2" x2="103.5" y2="251.2"/>
      <line class="st1" x1="114.7" y1="256.8" x2="103.5" y2="256.8"/>
      <line class="st1" x1="114.7" y1="262.3" x2="103.5" y2="262.3"/>
      <line class="st1" x1="114.7" y1="267.8" x2="103.5" y2="267.8"/>
      <line class="st1" x1="114.7" y1="273.3" x2="94.2" y2="273.3"/>
      <line class="st1" x1="114.7" y1="273.3" x2="94.2" y2="273.3"/>
      <line class="st1" x1="114.7" y1="278.8" x2="103.5" y2="278.8"/>
      <line class="st1" x1="114.7" y1="284.3" x2="103.5" y2="284.3"/>
      <line class="st1" x1="114.7" y1="289.9" x2="103.5" y2="289.9"/>
      <line class="st1" x1="114.7" y1="295.4" x2="103.5" y2="295.4"/>
      <line class="st1" x1="114.7" y1="300.9" x2="103.5" y2="300.9"/>
      <line class="st1" x1="114.7" y1="306.5" x2="103.5" y2="306.5"/>
      <line class="st1" x1="114.7" y1="312" x2="103.5" y2="312"/>
      <line class="st1" x1="114.7" y1="317.5" x2="103.5" y2="317.5"/>
      <line class="st1" x1="114.7" y1="323.1" x2="94.2" y2="323.1"/>
      <line class="st1" x1="114.7" y1="323" x2="94.2" y2="323"/>
      <line class="st1" x1="114.7" y1="328.5" x2="103.5" y2="328.5"/>
      <line class="st1" x1="114.7" y1="334.1" x2="103.5" y2="334.1"/>
      <line class="st1" x1="114.7" y1="339.6" x2="103.5" y2="339.6"/>
      <line class="st1" x1="114.7" y1="345.1" x2="103.5" y2="345.1"/>
      <line class="st1" x1="114.7" y1="350.6" x2="103.5" y2="350.6"/>
      <line class="st1" x1="114.7" y1="356.2" x2="103.5" y2="356.2"/>
      <line class="st1" x1="114.7" y1="361.7" x2="103.5" y2="361.7"/>
      <line class="st1" x1="114.7" y1="367.2" x2="103.5" y2="367.2"/>
      <line class="st1" x1="114.7" y1="372.8" x2="94.2" y2="372.8"/>
      <line class="st1" x1="114.7" y1="372.7" x2="94.2" y2="372.7"/>
      <line class="st1" x1="114.7" y1="378.2" x2="103.5" y2="378.2"/>
      <line class="st1" x1="114.7" y1="383.8" x2="103.5" y2="383.8"/>
      <line class="st1" x1="114.7" y1="389.3" x2="103.5" y2="389.3"/>
      <line class="st1" x1="114.7" y1="394.8" x2="103.5" y2="394.8"/>
      <line class="st1" x1="114.7" y1="400.4" x2="103.5" y2="400.4"/>
      <line class="st1" x1="114.7" y1="405.9" x2="103.5" y2="405.9"/>
      <line class="st1" x1="114.7" y1="411.4" x2="103.5" y2="411.4"/>
      <line class="st1" x1="114.7" y1="416.9" x2="103.5" y2="416.9"/>
      <line class="st1" x1="114.7" y1="422.5" x2="94.2" y2="422.5"/>
      <line class="st1" x1="114.7" y1="422.4" x2="94.2" y2="422.4"/>
      <line class="st1" x1="114.7" y1="428" x2="103.5" y2="428"/>
      <line class="st1" x1="114.7" y1="433.5" x2="103.5" y2="433.5"/>
      <line class="st1" x1="114.7" y1="439" x2="103.5" y2="439"/>
      <line class="st1" x1="114.7" y1="444.5" x2="103.5" y2="444.5"/>
      <line class="st1" x1="114.7" y1="450.1" x2="103.5" y2="450.1"/>
      <line class="st1" x1="114.7" y1="455.6" x2="103.5" y2="455.6"/>
      <line class="st1" x1="114.7" y1="461.1" x2="103.5" y2="461.1"/>
      <line class="st1" x1="114.7" y1="466.7" x2="103.5" y2="466.7"/>
      <line class="st1" x1="114.7" y1="472.2" x2="94.2" y2="472.2"/>
      <line class="st1" x1="114.7" y1="472.1" x2="94.2" y2="472.1"/>
      <line class="st1" x1="114.7" y1="477.7" x2="103.5" y2="477.7"/>
      <line class="st1" x1="114.7" y1="483.2" x2="103.5" y2="483.2"/>
      <line class="st1" x1="114.7" y1="488.7" x2="103.5" y2="488.7"/>
      <line class="st1" x1="114.7" y1="494.3" x2="103.5" y2="494.3"/>
      <line class="st1" x1="114.7" y1="499.8" x2="103.5" y2="499.8"/>
      <line class="st1" x1="114.7" y1="505.3" x2="103.5" y2="505.3"/>
      <line class="st1" x1="114.7" y1="510.8" x2="103.5" y2="510.8"/>
      <line class="st1" x1="114.7" y1="516.4" x2="103.5" y2="516.4"/>
      <line class="st1" x1="114.7" y1="521.9" x2="94.2" y2="521.9"/>
      <line class="st1" x1="114.7" y1="521.8" x2="94.2" y2="521.8"/>
      <line class="st1" x1="114.7" y1="527.4" x2="103.5" y2="527.4"/>
      <line class="st1" x1="114.7" y1="532.9" x2="103.5" y2="532.9"/>
      <line class="st1" x1="114.7" y1="538.4" x2="103.5" y2="538.4"/>
      <line class="st1" x1="114.7" y1="544" x2="103.5" y2="544"/>
      <line class="st1" x1="114.7" y1="549.5" x2="103.5" y2="549.5"/>
      <line class="st1" x1="114.7" y1="555" x2="103.5" y2="555"/>
      <line class="st1" x1="114.7" y1="560.6" x2="103.5" y2="560.6"/>
      <line class="st1" x1="114.7" y1="566.1" x2="103.5" y2="566.1"/>
      <line class="st1" x1="114.7" y1="571.6" x2="94.2" y2="571.6"/>
      <line class="st1" x1="114.7" y1="571.6" x2="94.2" y2="571.6"/>
      <line class="st1" x1="114.7" y1="577.1" x2="103.5" y2="577.1"/>
      <line class="st1" x1="114.7" y1="582.6" x2="103.5" y2="582.6"/>
      <line class="st1" x1="114.7" y1="588.1" x2="103.5" y2="588.1"/>
      <line class="st1" x1="114.7" y1="593.7" x2="103.5" y2="593.7"/>
      <line class="st1" x1="114.7" y1="599.2" x2="103.5" y2="599.2"/>
      <line class="st1" x1="114.7" y1="604.7" x2="103.5" y2="604.7"/>
      <line class="st1" x1="114.7" y1="610.3" x2="103.5" y2="610.3"/>
      <line class="st1" x1="114.7" y1="615.8" x2="103.5" y2="615.8"/>
      <line class="st1" x1="114.7" y1="621.3" x2="94.2" y2="621.3"/>
    </g>
  </g>
  <g id="Layer_21" data-name="Layer_2">
    <path id="TRUC_QUI_BOUGE" class="st0" d="M98.7,302.4H20.5c-.9,0-1.7-.8-1.7-1.7v-89.8c0-.9.8-1.7,1.7-1.7h78.2c.9,0,1.7.8,1.7,1.7v89.8c0,1-.8,1.7-1.7,1.7Z"/>
  </g>
</svg>